REM MD5 43c32572c3f1afcd9df5cf6a6114654b
FILE "Warhammer - Shadow of the Horned Rat (USA).bin" BINARY
  TRACK 01 MODE2/2352
    INDEX 01 00:00:00
  TRACK 02 AUDIO
    INDEX 00 53:52:11
    INDEX 01 53:54:11
  TRACK 03 AUDIO
    INDEX 00 56:39:29
    INDEX 01 56:41:29
  TRACK 04 AUDIO
    INDEX 00 57:19:13
    INDEX 01 57:21:13
  TRACK 05 AUDIO
    INDEX 00 61:11:06
    INDEX 01 61:13:06
  TRACK 06 AUDIO
    INDEX 00 67:02:26
    INDEX 01 67:04:26
REM LEADOUT 70:14:35
